HIERARCHY
ROOT hip
{
  OFFSET 0.00112043 5.09927 -9.65472
  CHANNELS 6 Xposition Yposition Zposition Zrotation Xrotation Yrotation
  JOINT abdomen
  {
    OFFSET 0 -1.186 -1.5018
    CHANNELS 3 Zrotation Xrotation Yrotation
    JOINT abdomen2
    {
      OFFSET 0 9.964 0.2134
      CHANNELS 3 Zrotation Xrotation Yrotation
      JOINT chest
      {
        OFFSET 0 13.134 -3.2573
        CHANNELS 3 Zrotation Xrotation Yrotation
        JOINT neck
        {
          OFFSET 0 20.686 -1.6905
          CHANNELS 3 Zrotation Xrotation Yrotation
          JOINT head
          {
            OFFSET 0 7.238 -0.1237
            CHANNELS 3 Zrotation Xrotation Yrotation
            End Site
            {
              OFFSET 0 0 0
            }
          }
        }
        JOINT lCollar
        {
          OFFSET 1.7069 20.075 5.0056
          CHANNELS 3 Zrotation Xrotation Yrotation
          JOINT lShldr
          {
            OFFSET 13.6458 -0.047 -4.849
            CHANNELS 3 Zrotation Xrotation Yrotation
            JOINT lForeArm
            {
              OFFSET 28.3255 -0.9759 2.2888
              CHANNELS 3 Zrotation Xrotation Yrotation
              JOINT lHand
              {
                OFFSET 22.1583 -0.53 10.8316
                CHANNELS 3 Zrotation Xrotation Yrotation
                JOINT lThumb1
                {
                  OFFSET 0.786 0.112 2.5817
                  CHANNELS 3 Zrotation Xrotation Yrotation
                  JOINT lThumb2
                  {
                    OFFSET 0.3601 -0.878 4.2331
                    CHANNELS 3 Zrotation Xrotation Yrotation
                    JOINT lThumb2_End
                    {
                      OFFSET 1.8127 -1.216 2.2227
                      CHANNELS 3 Zrotation Xrotation Yrotation
                      End Site
                      {
                        OFFSET 0.0181 -0.0122 0.0222
                      }
                    }
                  }
                }
                JOINT lCarpal1
                {
                  OFFSET 0.9571 1.114 1.7695
                  CHANNELS 3 Zrotation Xrotation Yrotation
                  JOINT lIndex1
                  {
                    OFFSET 4.1246 0.487 4.1451
                    CHANNELS 3 Zrotation Xrotation Yrotation
                    JOINT lIndex2
                    {
                      OFFSET 3.4052 -1.454 2.7682
                      CHANNELS 3 Zrotation Xrotation Yrotation
                      JOINT lIndex2_End
                      {
                        OFFSET 1.4531 -1.795 1.2713
                        CHANNELS 3 Zrotation Xrotation Yrotation
                        End Site
                        {
                          OFFSET 0.0145 -0.0179 0.0127
                        }
                      }
                    }
                  }
                  JOINT lMid1
                  {
                    OFFSET 5.6954 0.21 2.1184
                    CHANNELS 3 Zrotation Xrotation Yrotation
                    JOINT lMid2
                    {
                      OFFSET 3.9766 -1.54 2.3863
                      CHANNELS 3 Zrotation Xrotation Yrotation
                      JOINT lMid2_End
                      {
                        OFFSET 1.4042 -1.926 1.125
                        CHANNELS 3 Zrotation Xrotation Yrotation
                        End Site
                        {
                          OFFSET 0.014 -0.0193 0.0113
                        }
                      }
                    }
                  }
                }
                JOINT lCarpal2
                {
                  OFFSET 2.0956 0.66 -0.3894
                  CHANNELS 3 Zrotation Xrotation Yrotation
                  JOINT lRing1
                  {
                    OFFSET 5.0395 -0.09 2.4971
                    CHANNELS 3 Zrotation Xrotation Yrotation
                    JOINT lRing2
                    {
                      OFFSET 3.7921 -1.552 1.4806
                      CHANNELS 3 Zrotation Xrotation Yrotation
                      JOINT lRing2_End
                      {
                        OFFSET 1.4655 -1.808 0.9609
                        CHANNELS 3 Zrotation Xrotation Yrotation
                        End Site
                        {
                          OFFSET 0.0147 -0.0181 0.0096
                        }
                      }
                    }
                  }
                  JOINT lPinky1
                  {
                    OFFSET 4.9141 -1.269 0.3591
                    CHANNELS 3 Zrotation Xrotation Yrotation
                    JOINT lPinky2
                    {
                      OFFSET 3.1477 -1.685 0.8462
                      CHANNELS 3 Zrotation Xrotation Yrotation
                      JOINT lPinky2_End
                      {
                        OFFSET 0.8055 -1.585 0.7955
                        CHANNELS 3 Zrotation Xrotation Yrotation
                        End Site
                        {
                          OFFSET 0.0081 -0.0158 0.008
                        }
                      }
                    }
                  }
                }
              }
            }
          }
        }
        JOINT rCollar
        {
          OFFSET -1.7069 20.075 5.0056
          CHANNELS 3 Zrotation Xrotation Yrotation
          JOINT rShldr
          {
            OFFSET -13.6458 -0.047 -4.849
            CHANNELS 3 Zrotation Xrotation Yrotation
            JOINT rForeArm
            {
              OFFSET -28.3255 -0.9759 2.2888
              CHANNELS 3 Zrotation Xrotation Yrotation
              JOINT rHand
              {
                OFFSET -22.1583 -0.53 10.8316
                CHANNELS 3 Zrotation Xrotation Yrotation
                JOINT rThumb1
                {
                  OFFSET -0.786 0.112 2.5817
                  CHANNELS 3 Zrotation Xrotation Yrotation
                  JOINT rThumb2
                  {
                    OFFSET -0.3601 -0.878 4.2331
                    CHANNELS 3 Zrotation Xrotation Yrotation
                    JOINT rThumb2_End
                    {
                      OFFSET -1.8127 -1.216 2.2227
                      CHANNELS 3 Zrotation Xrotation Yrotation
                      End Site
                      {
                        OFFSET -0.0181 -0.0122 0.0222
                      }
                    }
                  }
                }
                JOINT rCarpal1
                {
                  OFFSET -0.9571 1.114 1.7695
                  CHANNELS 3 Zrotation Xrotation Yrotation
                  JOINT rIndex1
                  {
                    OFFSET -4.1246 0.487 4.1451
                    CHANNELS 3 Zrotation Xrotation Yrotation
                    JOINT rIndex2
                    {
                      OFFSET -3.4052 -1.454 2.7682
                      CHANNELS 3 Zrotation Xrotation Yrotation
                      JOINT rIndex2_End
                      {
                        OFFSET -1.4531 -1.795 1.2713
                        CHANNELS 3 Zrotation Xrotation Yrotation
                        End Site
                        {
                          OFFSET -0.0145 -0.018 0.0127
                        }
                      }
                    }
                  }
                  JOINT rMid1
                  {
                    OFFSET -5.6954 0.21 2.1184
                    CHANNELS 3 Zrotation Xrotation Yrotation
                    JOINT rMid2
                    {
                      OFFSET -3.9766 -1.54 2.3863
                      CHANNELS 3 Zrotation Xrotation Yrotation
                      JOINT rMid2_End
                      {
                        OFFSET -1.4042 -1.926 1.125
                        CHANNELS 3 Zrotation Xrotation Yrotation
                        End Site
                        {
                          OFFSET -0.014 -0.0193 0.0113
                        }
                      }
                    }
                  }
                }
                JOINT rCarpal2
                {
                  OFFSET -2.0956 0.66 -0.3894
                  CHANNELS 3 Zrotation Xrotation Yrotation
                  JOINT rRing1
                  {
                    OFFSET -5.0395 -0.09 2.4971
                    CHANNELS 3 Zrotation Xrotation Yrotation
                    JOINT rRing2
                    {
                      OFFSET -3.7921 -1.552 1.4806
                      CHANNELS 3 Zrotation Xrotation Yrotation
                      JOINT rRing2_End
                      {
                        OFFSET -1.4655 -1.808 0.9609
                        CHANNELS 3 Zrotation Xrotation Yrotation
                        End Site
                        {
                          OFFSET -0.0147 -0.0181 0.0096
                        }
                      }
                    }
                  }
                  JOINT rPinky1
                  {
                    OFFSET -4.9141 -1.269 0.3592
                    CHANNELS 3 Zrotation Xrotation Yrotation
                    JOINT rPinky2
                    {
                      OFFSET -3.1477 -1.685 0.8462
                      CHANNELS 3 Zrotation Xrotation Yrotation
                      JOINT rPinky2_End
                      {
                        OFFSET -0.8055 -1.585 0.7955
                        CHANNELS 3 Zrotation Xrotation Yrotation
                        End Site
                        {
                          OFFSET -0.0081 -0.0158 0.008
                        }
                      }
                    }
                  }
                }
              }
            }
          }
        }
      }
    }
  }
  JOINT lThigh
  {
    OFFSET 8.367 -8.2066 0.5982
    CHANNELS 3 Zrotation Xrotation Yrotation
    JOINT lShin
    {
      OFFSET 2.1923 -43.463 -0.4932
      CHANNELS 3 Zrotation Xrotation Yrotation
      JOINT lFoot
      {
        OFFSET 0.7333 -45.8593 -2.6451
        CHANNELS 3 Zrotation Xrotation Yrotation
        End Site
        {
          OFFSET 2.6618 -4.2699 12.3931
        }
      }
    }
  }
  JOINT rThigh
  {
    OFFSET -8.367 -8.2066 0.5982
    CHANNELS 3 Zrotation Xrotation Yrotation
    JOINT rShin
    {
      OFFSET -2.1923 -43.463 -0.4931
      CHANNELS 3 Zrotation Xrotation Yrotation
      JOINT rFoot
      {
        OFFSET -0.7333 -45.8593 -2.6451
        CHANNELS 3 Zrotation Xrotation Yrotation
        End Site
        {
          OFFSET -2.6618 -4.2699 12.3931
        }
      }
    }
  }
}
MOTION
Frames:	5
Frame Time:	0.0333333
0 91.7903 2.51682 0 0 -0 0 0 -0 0 0 -0 0 0 -0 0 0 -0 0 0 -0 0 0 -0 1.66051 0.0835086 5.75766 -0.0175111 0.895433 15.7816 7.95139e-016 -1.98785e-016 -0 5.46658e-016 -3.97569e-016 -0 5.96354e-016 0 -0 3.97569e-016 1.98785e-016 9.54166e-015 1.49089e-016 -3.97569e-016 -0 6.4605e-016 0 3.18055e-015 5.96354e-016 0 3.18055e-015 8.94531e-016 -1.98785e-016 6.36111e-015 6.4605e-016 0 3.18055e-015 5.96354e-016 0 3.18055e-015 8.94531e-016 -1.98785e-016 6.36111e-015 1.49089e-016 -3.97569e-016 -0 6.4605e-016 0 3.18055e-015 5.96354e-016 0 3.18055e-015 8.94531e-016 -1.98785e-016 6.36111e-015 6.4605e-016 0 3.18055e-015 5.96354e-016 0 3.18055e-015 8.94531e-016 -1.98785e-016 6.36111e-015 0 0 -0 -1.4496 0.0636048 -5.0245 -1.74811 1.20616 -16.8394 -1.19271e-015 1.98785e-016 -3.18055e-015 -3.97569e-016 1.98785e-016 -3.18055e-015 -2.98177e-016 1.98785e-016 -3.18055e-015 -2.98177e-016 3.97569e-016 -0 4.96962e-016 0 -6.36111e-015 -9.93923e-017 3.97569e-016 -0 -8.94531e-016 5.96354e-016 -0 -3.97569e-016 3.97569e-016 -0 -9.93923e-017 3.97569e-016 -0 -8.94531e-016 5.96354e-016 -0 -3.97569e-016 3.97569e-016 -0 4.96962e-016 0 -6.36111e-015 -9.93923e-017 3.97569e-016 -0 -8.94531e-016 5.96354e-016 -0 -3.97569e-016 3.97569e-016 -0 -9.93923e-017 3.97569e-016 -0 -8.94531e-016 5.96354e-016 -0 -3.97569e-016 3.97569e-016 -0 -4.66111 -0.998717 0.12318 0.00986924 1.54847 0.176523 4.65186 -0.572283 -0.254274 4.66111 -0.998765 -0.123176 -0.00986867 1.54869 -0.176537 -4.65186 -0.572453 0.25427 
-27.4411 25.2187 -8.63329 -133.331 66.6651 2.23174e-006 -0.216519 4.4853 -0.130415 -0.424707 8.97105 -0.244888 -0.424697 8.97106 -0.244891 -2.60977e-005 19.3236 3.38247e-006 0.000804121 -0.0922517 0.119971 -13.0298 0.181506 -3.55271 -30.617 0.274012 26.1409 -1.64719 46.3042 -15.5542 29.5658 7.97913 1.86757 4.20519e-006 -7.76622e-007 1.33217e-006 -6.36111e-015 6.36111e-015 -0 2.70992e-006 3.3946e-007 -4.70953e-007 3.18055e-015 3.18055e-015 -0 4.20519e-006 -7.76622e-007 1.33217e-006 7.06225e-031 1.27222e-014 -3.18055e-015 2.70992e-006 3.3946e-007 -4.70953e-007 4.20519e-006 -7.76622e-007 1.33217e-006 7.06225e-031 1.27222e-014 -3.18055e-015 2.70992e-006 3.3946e-007 -4.70953e-007 3.18055e-015 3.18055e-015 -0 4.20519e-006 -7.76622e-007 1.33217e-006 7.06225e-031 1.27222e-014 -3.18055e-015 2.70992e-006 3.3946e-007 -4.70953e-007 4.20519e-006 -7.76622e-007 1.33217e-006 7.06225e-031 1.27222e-014 -3.18055e-015 2.70992e-006 3.3946e-007 -4.70953e-007 13.0283 0.181413 3.55057 30.806 0.18148 -25.4133 0.0525931 45.7191 15.6907 -29.644 7.83906 -1.62162 1.90833e-014 -6.36111e-015 3.18055e-015 1.90833e-014 -3.18055e-015 -6.36111e-015 9.54166e-015 -3.18055e-015 -3.18055e-015 6.36111e-015 -9.54166e-015 3.18055e-015 1.59028e-014 0 3.18055e-015 3.18055e-015 0 -0 2.22639e-014 -6.36111e-015 -6.36111e-015 1.59028e-014 0 3.18055e-015 3.18055e-015 0 -0 2.22639e-014 -6.36111e-015 -6.36111e-015 6.36111e-015 -9.54166e-015 3.18055e-015 1.59028e-014 0 3.18055e-015 3.18055e-015 0 -0 2.22639e-014 -6.36111e-015 -6.36111e-015 1.59028e-014 0 3.18055e-015 3.18055e-015 0 -0 2.22639e-014 -6.36111e-015 -6.36111e-015 5.47493 -10.9322 3.98639 2.37683 40.9018 0.164044 5.25193 25.2949 -3.48759 -5.18363 -11.8483 -3.9464 -2.31728 38.9193 -0.316602 -5.71768 28.1623 3.71055 
-39.6657 6.76269 -19.5863 -13.3294 83.3349 180 -0.298186 6.46415 -0.204011 -0.578615 12.9293 -0.377545 -0.578615 12.9292 -0.377547 2.43579e-005 27.6928 -1.08453e-005 -0.00215975 -0.18363 0.240485 -18.5383 0.558741 -5.06333 -45.2484 0.346544 35.5334 20.767 55.1873 -48.4654 42.4543 12.5018 3.78105 -1.0192e-006 4.96221e-007 2.4059e-006 1.23246e-014 2.18663e-014 -0 -2.1449e-007 3.68255e-007 -1.52734e-008 3.97569e-016 -1.78906e-015 -3.18055e-015 -1.0192e-006 4.96221e-007 2.4059e-006 1.31198e-014 2.22639e-014 -0 -2.1449e-007 3.68255e-007 -1.52734e-008 -1.0192e-006 4.96221e-007 2.4059e-006 1.31198e-014 2.22639e-014 -0 -2.1449e-007 3.68255e-007 -1.52734e-008 3.97569e-016 -1.78906e-015 -3.18055e-015 -1.0192e-006 4.96221e-007 2.4059e-006 1.31198e-014 2.22639e-014 -0 -2.1449e-007 3.68255e-007 -1.52734e-008 -1.0192e-006 4.96221e-007 2.4059e-006 1.31198e-014 2.22639e-014 -0 -2.1449e-007 3.68255e-007 -1.52734e-008 18.5307 0.556491 5.05811 45.4145 0.224555 -34.7956 -21.6446 54.1652 48.2284 -42.5744 12.3015 -3.39487 -2.31399e-006 9.12483e-007 -3.2867e-006 5.43654e-007 -1.64753e-006 -2.72329e-006 1.38155e-014 -2.52457e-014 -3.18055e-015 6.95746e-016 -3.03147e-015 -0 -2.31399e-006 9.12483e-007 -3.2867e-006 5.43654e-007 -1.64753e-006 -2.72329e-006 1.65985e-014 -2.39536e-014 6.36111e-015 -2.31399e-006 9.12483e-007 -3.2867e-006 5.43654e-007 -1.64753e-006 -2.72329e-006 1.65985e-014 -2.39536e-014 6.36111e-015 6.95746e-016 -3.03147e-015 -0 -2.31399e-006 9.12483e-007 -3.2867e-006 5.43654e-007 -1.64753e-006 -2.72329e-006 1.65985e-014 -2.39536e-014 6.36111e-015 -2.31399e-006 9.12483e-007 -3.2867e-006 5.43654e-007 -1.64753e-006 -2.72329e-006 1.65985e-014 -2.39536e-014 6.36111e-015 8.96862 -17.8088 6.26691 5.64782 59.3632 -2.25804 7.22659 38.4517 -3.88696 -8.92308 -16.3089 -6.36039 -5.43749 58.1852 2.07461 -7.28561 38.1239 3.93018 
-38.0901 11.1219 -17.2796 -0 90 -179.996 -0.282832 5.93711 -0.185369 -0.550705 11.875 -0.34388 -0.550705 11.8751 -0.34388 -2.28336e-006 25.1073 6.85023e-007 -0.00893702 -0.274173 0.361553 -16.55 1.13408 -4.53348 -42.2851 0.259223 33.9359 14.3596 54.6233 -40.8956 40.0849 11.7649 3.1979 2.1256e-007 -5.89866e-008 -3.66948e-007 2.62882e-007 -9.49698e-007 -2.88182e-006 3.76163e-007 1.98937e-007 -2.8456e-008 5.95877e-031 3.57812e-015 -9.54166e-015 2.1256e-007 -5.89866e-008 -3.66948e-007 2.62882e-007 -9.49698e-007 -2.88182e-006 3.76163e-007 1.98937e-007 -2.8456e-008 2.1256e-007 -5.89866e-008 -3.66948e-007 2.62882e-007 -9.49698e-007 -2.88182e-006 3.76163e-007 1.98937e-007 -2.8456e-008 5.95877e-031 3.57812e-015 -9.54166e-015 2.1256e-007 -5.89866e-008 -3.66948e-007 2.62882e-007 -9.49698e-007 -2.88182e-006 3.76163e-007 1.98937e-007 -2.8456e-008 2.1256e-007 -5.89866e-008 -3.66948e-007 2.62882e-007 -9.49698e-007 -2.88182e-006 3.76163e-007 1.98937e-007 -2.8456e-008 16.5314 1.12761 4.52419 42.4461 0.143295 -33.1724 -15.4801 53.6542 40.7561 -40.1709 11.502 -2.77201 3.82352e-007 -1.86006e-007 -3.40763e-008 3.82352e-007 -1.86006e-007 -3.40763e-008 7.54363e-007 5.78699e-007 -6.75321e-008 0 0 -6.36111e-015 3.82352e-007 -1.86006e-007 -3.40763e-008 3.82352e-007 -1.86006e-007 -3.40763e-008 7.54363e-007 5.78699e-007 -6.75321e-008 3.82352e-007 -1.86006e-007 -3.40763e-008 3.82352e-007 -1.86006e-007 -3.40763e-008 7.54363e-007 5.78699e-007 -6.75321e-008 0 0 -6.36111e-015 3.82352e-007 -1.86006e-007 -3.40763e-008 3.82352e-007 -1.86006e-007 -3.40763e-008 7.54363e-007 5.78699e-007 -6.75321e-008 3.82352e-007 -1.86006e-007 -3.40763e-008 3.82352e-007 -1.86006e-007 -3.40763e-008 7.54363e-007 5.78699e-007 -6.75321e-008 7.84843 -16.1997 5.89311 4.89094 55.5916 -1.77313 6.88117 35.0962 -3.5297 -7.85339 -16.1994 -5.89782 -4.8957 55.5901 1.77211 -6.88665 35.0975 3.52796 
-38.0901 11.201 -17.6612 -0 90 -179.996 -0.284326 5.86549 -0.184139 -0.553977 11.7318 -0.341545 -0.553977 11.7318 -0.341545 -4.19492e-006 24.5122 1.95531e-006 -0.0148008 -0.364892 0.482528 -15.924 1.67589 -4.38148 -42.519 0.200641 34.3364 14.2302 54.7409 -41.5356 40.4493 12.0327 3.10954 -3.90488e-007 -9.78812e-008 -3.35523e-006 9.37519e-008 -3.52529e-007 1.68829e-007 0 0 -0 -1.10348e-031 1.98785e-015 3.18055e-015 -3.90488e-007 -9.78812e-008 -3.35523e-006 9.37519e-008 -3.52529e-007 1.68829e-007 -7.95139e-016 1.98785e-015 3.18055e-015 -3.90488e-007 -9.78812e-008 -3.35523e-006 9.37519e-008 -3.52529e-007 1.68829e-007 -7.95139e-016 1.98785e-015 3.18055e-015 -1.10348e-031 1.98785e-015 3.18055e-015 -3.90488e-007 -9.78812e-008 -3.35523e-006 9.37519e-008 -3.52529e-007 1.68829e-007 -7.95139e-016 1.98785e-015 3.18055e-015 -3.90488e-007 -9.78812e-008 -3.35523e-006 9.37519e-008 -3.52529e-007 1.68829e-007 -7.95139e-016 1.98785e-015 3.18055e-015 15.8954 1.66565 4.36836 42.6713 0.0847018 -33.55 -15.3347 53.7564 41.3164 -40.5165 11.7087 -2.62553 -7.74443e-007 1.32319e-006 6.81428e-008 -1.36084e-006 2.46178e-007 6.28497e-006 -9.87373e-009 9.50775e-007 5.53795e-010 1.59028e-015 -1.59028e-015 -0 -7.74443e-007 1.32319e-006 6.81428e-008 -1.36084e-006 2.46178e-007 6.28497e-006 -9.87373e-009 9.50775e-007 5.53795e-010 -7.74443e-007 1.32319e-006 6.81428e-008 -1.36084e-006 2.46178e-007 6.28497e-006 -9.87373e-009 9.50775e-007 5.53795e-010 1.59028e-015 -1.59028e-015 -0 -7.74443e-007 1.32319e-006 6.81428e-008 -1.36084e-006 2.46178e-007 6.28497e-006 -9.87373e-009 9.50775e-007 5.53795e-010 -7.74443e-007 1.32319e-006 6.81428e-008 -1.36084e-006 2.46178e-007 6.28497e-006 -9.87373e-009 9.50775e-007 5.53795e-010 7.87169 -16.5319 5.93526 5.18355 56.3548 -2.00875 6.78131 34.6463 -3.5096 -7.87725 -16.5315 -5.94046 -5.18997 56.353 2.00904 -6.78814 34.6483 3.50832 
